# xmcd CD database file
#
# Track frame offsets:
#	150
#	20787
#	36127
#	48467
#	58902
#	69057
#	80065
#	95327
#	110740
#	122572
#	138250
#	154837
#	170825
#	182840
#
# Disc length: 2669 seconds
#
# Revision: 1
# Processed by: cddbd v1.5.2PL0 Copyright (c) Steve Scherf et al.
# Submitted via: CDex 1.70beta3
#
DISCID=c50a6b0e
DTITLE=T. Rex - Dandy In The Underworld
DYEAR=1977
DGENRE=Glam Rock
TTITLE0=Dandy In The Underworld
TTITLE1=Crimson Moon
TTITLE2=Universe
TTITLE3=I'm A Fool For You, Girl
TTITLE4=I Love To Boogie
TTITLE5=Visions Of Domino
TTITLE6=Jason B. Sad
TTITLE7=Groove A Little
TTITLE8=The Soul Of My Suit
TTITLE9=Hang-ups
TTITLE10=Pain And Love
TTITLE11=Teen Riot Structure
TTITLE12=Celebrate Summer
TTITLE13=Dandy In The Underworld (Single Version)
EXTD=YEAR: 1977
EXTT0=
EXTT1=
EXTT2=
EXTT3=
EXTT4=
EXTT5=
EXTT6=
EXTT7=
EXTT8=
EXTT9=
EXTT10=
EXTT11=
EXTT12=
EXTT13=
PLAYORDER=
